<svg width="20" height="20" viewBox="0 0 20 20" fill="none" xmlns="http://www.w3.org/2000/svg">
<rect width="20" height="20" fill="white"/>
<path d="M7.27273 0H3.63636V2H1.81818V4H0V10H1.81818V12H3.63636V14H5.45455V16H7.27273V18H9.09091V20H10.9091V18H12.7273V16H14.5455V14H16.3636V12H18.1818V10H20V4H18.1818V2H16.3636V0H12.7273V2H10.9091V4H9.09091V2H7.27273V0ZM7.27273 2V4H9.09091V6H10.9091V4H12.7273V2H16.3636V4H18.1818V10H16.3636V12H14.5455V14H12.7273V16H10.9091V18H9.09091V16H7.27273V14H5.45455V12H3.63636V10H1.81818V4H3.63636V2H7.27273Z" fill="#FF0000"/>
<path d="M4 4.5H2V9.5H4V10V11.5H5L5.5 12V13.5H6H7.5V15.5H9.5V17.5H10.5V15.5H11H12.5V13.5H14.5V13L14 11.5H14.5H16V9.5H18V6V4.5H16V2.5H13V4.5H12.5H11V6.5H10H9V4.5H7V2.5H6.5H4V4.5Z" fill="#FF0000" stroke="#FF0000"/>
</svg>
